<svg xmlns="http://www.w3.org/2000/svg" viewBox="0 0 1200 800" width="1200" height="800" role="img" aria-label="Abstract coastal contour map placeholder">
  <defs>
    <clipPath id="seaClip"><path d="M725.5 -700.0 L746.1 -680.0 L748.7 -660.0 L735.1 -640.0 L711.2 -620.0 L684.7 -600.0 L663.5 -580.0 L652.9 -560.0 L654.3 -540.0 L664.6 -520.0 L677.4 -500.0 L685.0 -480.0 L680.8 -460.0 L661.4 -440.0 L627.9 -420.0 L585.2 -400.0 L540.8 -380.0 L502.8 -360.0 L477.5 -340.0 L468.2 -320.0 L474.7 -300.0 L494.1 -280.0 L522.0 -260.0 L554.3 -240.0 L588.1 -220.0 L621.9 -200.0 L655.7 -180.0 L689.3 -160.0 L721.5 -140.0 L749.6 -120.0 L769.7 -100.0 L777.4 -80.0 L769.7 -60.0 L746.4 -40.0 L710.3 -20.0 L667.6 0.0 L626.0 20.0 L593.1 40.0 L573.7 60.0 L569.1 80.0 L576.0 100.0 L587.9 120.0 L597.3 140.0 L597.8 160.0 L586.1 180.0 L563.6 200.0 L535.6 220.0 L510.0 240.0 L494.9 260.0 L496.1 280.0 L515.9 300.0 L551.9 320.0 L598.6 340.0 L648.3 360.0 L693.8 380.0 L729.8 400.0 L753.7 420.0 L765.8 440.0 L768.0 460.0 L762.5 480.0 L750.7 500.0 L733.0 520.0 L708.6 540.0 L677.0 560.0 L638.9 580.0 L597.0 600.0 L556.1 620.0 L522.1 640.0 L500.7 660.0 L495.1 680.0 L505.5 700.0 L527.9 720.0 L555.9 740.0 L581.8 760.0 L599.1 780.0 L604.7 800.0 L599.6 820.0 L588.8 840.0 L579.7 860.0 L579.7 880.0 L593.8 900.0 L623.0 920.0 L663.9 940.0 L709.2 960.0 L750.2 980.0 L778.7 1000.0 L789.3 1020.0 L780.7 1040.0 L755.3 1060.0 L718.6 1080.0 L676.6 1100.0 L635.0 1120.0 L597.3 1140.0 L565.0 1160.0 L537.9 1180.0 L515.5 1200.0 L497.8 1220.0 L486.4 1240.0 L483.5 1260.0 L491.7 1280.0 L512.2 1300.0 L543.9 1320.0 L582.9 1340.0 L623.2 1360.0 L658.0 1380.0 L681.5 1400.0 L691.2 1420.0 L688.2 1440.0 L677.1 1460.0 L665.0 1480.0 L658.8 1500.0 L2100 1700 L2100 -900 Z"/></clipPath>
    <linearGradient id="seaFade" x1="0" y1="0" x2="1" y2="0">
      <stop offset="0" stop-color="#fff" stop-opacity="1"/>
      <stop offset="0.55" stop-color="#fff" stop-opacity="0.35"/>
      <stop offset="1" stop-color="#fff" stop-opacity="0"/>
    </linearGradient>
    <mask id="seaMask"><rect x="-900" y="-900" width="3000" height="2600" fill="url(#seaFade)"/></mask>
    <linearGradient id="vignette" x1="0" y1="0" x2="0.35" y2="1">
      <stop offset="0" stop-color="#0d0f13" stop-opacity="0"/>
      <stop offset="1" stop-color="#0d0f13" stop-opacity="0.66"/>
    </linearGradient>
  </defs>
  <rect width="1200" height="800" fill="#0d0f13"/>
  <g transform="translate(600 400) rotate(-18.88) scale(-1.30 1.3) translate(-600 -400)">
    <g clip-path="url(#seaClip)" mask="url(#seaMask)"><line x1="-900" y1="-800" x2="2100" y2="-800" stroke="#f4f1ec" stroke-opacity="0.110" stroke-width="1"/><line x1="-900" y1="-786" x2="2100" y2="-786" stroke="#f4f1ec" stroke-opacity="0.110" stroke-width="1"/><line x1="-900" y1="-772" x2="2100" y2="-772" stroke="#f4f1ec" stroke-opacity="0.110" stroke-width="1"/><line x1="-900" y1="-758" x2="2100" y2="-758" stroke="#f4f1ec" stroke-opacity="0.110" stroke-width="1"/><line x1="-900" y1="-744" x2="2100" y2="-744" stroke="#f4f1ec" stroke-opacity="0.110" stroke-width="1"/><line x1="-900" y1="-730" x2="2100" y2="-730" stroke="#f4f1ec" stroke-opacity="0.110" stroke-width="1"/><line x1="-900" y1="-716" x2="2100" y2="-716" stroke="#f4f1ec" stroke-opacity="0.110" stroke-width="1"/><line x1="-900" y1="-702" x2="2100" y2="-702" stroke="#f4f1ec" stroke-opacity="0.110" stroke-width="1"/><line x1="-900" y1="-688" x2="2100" y2="-688" stroke="#f4f1ec" stroke-opacity="0.110" stroke-width="1"/><line x1="-900" y1="-674" x2="2100" y2="-674" stroke="#f4f1ec" stroke-opacity="0.110" stroke-width="1"/><line x1="-900" y1="-660" x2="2100" y2="-660" stroke="#f4f1ec" stroke-opacity="0.110" stroke-width="1"/><line x1="-900" y1="-646" x2="2100" y2="-646" stroke="#f4f1ec" stroke-opacity="0.110" stroke-width="1"/><line x1="-900" y1="-632" x2="2100" y2="-632" stroke="#f4f1ec" stroke-opacity="0.110" stroke-width="1"/><line x1="-900" y1="-618" x2="2100" y2="-618" stroke="#f4f1ec" stroke-opacity="0.110" stroke-width="1"/><line x1="-900" y1="-604" x2="2100" y2="-604" stroke="#f4f1ec" stroke-opacity="0.110" stroke-width="1"/><line x1="-900" y1="-590" x2="2100" y2="-590" stroke="#f4f1ec" stroke-opacity="0.110" stroke-width="1"/><line x1="-900" y1="-576" x2="2100" y2="-576" stroke="#f4f1ec" stroke-opacity="0.110" stroke-width="1"/><line x1="-900" y1="-562" x2="2100" y2="-562" stroke="#f4f1ec" stroke-opacity="0.110" stroke-width="1"/><line x1="-900" y1="-548" x2="2100" y2="-548" stroke="#f4f1ec" stroke-opacity="0.110" stroke-width="1"/><line x1="-900" y1="-534" x2="2100" y2="-534" stroke="#f4f1ec" stroke-opacity="0.110" stroke-width="1"/><line x1="-900" y1="-520" x2="2100" y2="-520" stroke="#f4f1ec" stroke-opacity="0.110" stroke-width="1"/><line x1="-900" y1="-506" x2="2100" y2="-506" stroke="#f4f1ec" stroke-opacity="0.110" stroke-width="1"/><line x1="-900" y1="-492" x2="2100" y2="-492" stroke="#f4f1ec" stroke-opacity="0.110" stroke-width="1"/><line x1="-900" y1="-478" x2="2100" y2="-478" stroke="#f4f1ec" stroke-opacity="0.110" stroke-width="1"/><line x1="-900" y1="-464" x2="2100" y2="-464" stroke="#f4f1ec" stroke-opacity="0.110" stroke-width="1"/><line x1="-900" y1="-450" x2="2100" y2="-450" stroke="#f4f1ec" stroke-opacity="0.110" stroke-width="1"/><line x1="-900" y1="-436" x2="2100" y2="-436" stroke="#f4f1ec" stroke-opacity="0.110" stroke-width="1"/><line x1="-900" y1="-422" x2="2100" y2="-422" stroke="#f4f1ec" stroke-opacity="0.110" stroke-width="1"/><line x1="-900" y1="-408" x2="2100" y2="-408" stroke="#f4f1ec" stroke-opacity="0.110" stroke-width="1"/><line x1="-900" y1="-394" x2="2100" y2="-394" stroke="#f4f1ec" stroke-opacity="0.110" stroke-width="1"/><line x1="-900" y1="-380" x2="2100" y2="-380" stroke="#f4f1ec" stroke-opacity="0.110" stroke-width="1"/><line x1="-900" y1="-366" x2="2100" y2="-366" stroke="#f4f1ec" stroke-opacity="0.110" stroke-width="1"/><line x1="-900" y1="-352" x2="2100" y2="-352" stroke="#f4f1ec" stroke-opacity="0.110" stroke-width="1"/><line x1="-900" y1="-338" x2="2100" y2="-338" stroke="#f4f1ec" stroke-opacity="0.110" stroke-width="1"/><line x1="-900" y1="-324" x2="2100" y2="-324" stroke="#f4f1ec" stroke-opacity="0.110" stroke-width="1"/><line x1="-900" y1="-310" x2="2100" y2="-310" stroke="#f4f1ec" stroke-opacity="0.110" stroke-width="1"/><line x1="-900" y1="-296" x2="2100" y2="-296" stroke="#f4f1ec" stroke-opacity="0.110" stroke-width="1"/><line x1="-900" y1="-282" x2="2100" y2="-282" stroke="#f4f1ec" stroke-opacity="0.110" stroke-width="1"/><line x1="-900" y1="-268" x2="2100" y2="-268" stroke="#f4f1ec" stroke-opacity="0.110" stroke-width="1"/><line x1="-900" y1="-254" x2="2100" y2="-254" stroke="#f4f1ec" stroke-opacity="0.110" stroke-width="1"/><line x1="-900" y1="-240" x2="2100" y2="-240" stroke="#f4f1ec" stroke-opacity="0.110" stroke-width="1"/><line x1="-900" y1="-226" x2="2100" y2="-226" stroke="#f4f1ec" stroke-opacity="0.110" stroke-width="1"/><line x1="-900" y1="-212" x2="2100" y2="-212" stroke="#f4f1ec" stroke-opacity="0.110" stroke-width="1"/><line x1="-900" y1="-198" x2="2100" y2="-198" stroke="#f4f1ec" stroke-opacity="0.110" stroke-width="1"/><line x1="-900" y1="-184" x2="2100" y2="-184" stroke="#f4f1ec" stroke-opacity="0.110" stroke-width="1"/><line x1="-900" y1="-170" x2="2100" y2="-170" stroke="#f4f1ec" stroke-opacity="0.110" stroke-width="1"/><line x1="-900" y1="-156" x2="2100" y2="-156" stroke="#f4f1ec" stroke-opacity="0.110" stroke-width="1"/><line x1="-900" y1="-142" x2="2100" y2="-142" stroke="#f4f1ec" stroke-opacity="0.110" stroke-width="1"/><line x1="-900" y1="-128" x2="2100" y2="-128" stroke="#f4f1ec" stroke-opacity="0.110" stroke-width="1"/><line x1="-900" y1="-114" x2="2100" y2="-114" stroke="#f4f1ec" stroke-opacity="0.110" stroke-width="1"/><line x1="-900" y1="-100" x2="2100" y2="-100" stroke="#f4f1ec" stroke-opacity="0.110" stroke-width="1"/><line x1="-900" y1="-86" x2="2100" y2="-86" stroke="#f4f1ec" stroke-opacity="0.110" stroke-width="1"/><line x1="-900" y1="-72" x2="2100" y2="-72" stroke="#f4f1ec" stroke-opacity="0.110" stroke-width="1"/><line x1="-900" y1="-58" x2="2100" y2="-58" stroke="#f4f1ec" stroke-opacity="0.110" stroke-width="1"/><line x1="-900" y1="-44" x2="2100" y2="-44" stroke="#f4f1ec" stroke-opacity="0.110" stroke-width="1"/><line x1="-900" y1="-30" x2="2100" y2="-30" stroke="#f4f1ec" stroke-opacity="0.110" stroke-width="1"/><line x1="-900" y1="-16" x2="2100" y2="-16" stroke="#f4f1ec" stroke-opacity="0.110" stroke-width="1"/><line x1="-900" y1="-2" x2="2100" y2="-2" stroke="#f4f1ec" stroke-opacity="0.110" stroke-width="1"/><line x1="-900" y1="12" x2="2100" y2="12" stroke="#f4f1ec" stroke-opacity="0.110" stroke-width="1"/><line x1="-900" y1="26" x2="2100" y2="26" stroke="#f4f1ec" stroke-opacity="0.110" stroke-width="1"/><line x1="-900" y1="40" x2="2100" y2="40" stroke="#f4f1ec" stroke-opacity="0.110" stroke-width="1"/><line x1="-900" y1="54" x2="2100" y2="54" stroke="#f4f1ec" stroke-opacity="0.110" stroke-width="1"/><line x1="-900" y1="68" x2="2100" y2="68" stroke="#f4f1ec" stroke-opacity="0.110" stroke-width="1"/><line x1="-900" y1="82" x2="2100" y2="82" stroke="#f4f1ec" stroke-opacity="0.110" stroke-width="1"/><line x1="-900" y1="96" x2="2100" y2="96" stroke="#f4f1ec" stroke-opacity="0.110" stroke-width="1"/><line x1="-900" y1="110" x2="2100" y2="110" stroke="#f4f1ec" stroke-opacity="0.110" stroke-width="1"/><line x1="-900" y1="124" x2="2100" y2="124" stroke="#f4f1ec" stroke-opacity="0.110" stroke-width="1"/><line x1="-900" y1="138" x2="2100" y2="138" stroke="#f4f1ec" stroke-opacity="0.110" stroke-width="1"/><line x1="-900" y1="152" x2="2100" y2="152" stroke="#f4f1ec" stroke-opacity="0.110" stroke-width="1"/><line x1="-900" y1="166" x2="2100" y2="166" stroke="#f4f1ec" stroke-opacity="0.110" stroke-width="1"/><line x1="-900" y1="180" x2="2100" y2="180" stroke="#f4f1ec" stroke-opacity="0.110" stroke-width="1"/><line x1="-900" y1="194" x2="2100" y2="194" stroke="#f4f1ec" stroke-opacity="0.110" stroke-width="1"/><line x1="-900" y1="208" x2="2100" y2="208" stroke="#f4f1ec" stroke-opacity="0.110" stroke-width="1"/><line x1="-900" y1="222" x2="2100" y2="222" stroke="#f4f1ec" stroke-opacity="0.110" stroke-width="1"/><line x1="-900" y1="236" x2="2100" y2="236" stroke="#f4f1ec" stroke-opacity="0.110" stroke-width="1"/><line x1="-900" y1="250" x2="2100" y2="250" stroke="#f4f1ec" stroke-opacity="0.110" stroke-width="1"/><line x1="-900" y1="264" x2="2100" y2="264" stroke="#f4f1ec" stroke-opacity="0.110" stroke-width="1"/><line x1="-900" y1="278" x2="2100" y2="278" stroke="#f4f1ec" stroke-opacity="0.110" stroke-width="1"/><line x1="-900" y1="292" x2="2100" y2="292" stroke="#f4f1ec" stroke-opacity="0.110" stroke-width="1"/><line x1="-900" y1="306" x2="2100" y2="306" stroke="#f4f1ec" stroke-opacity="0.110" stroke-width="1"/><line x1="-900" y1="320" x2="2100" y2="320" stroke="#f4f1ec" stroke-opacity="0.110" stroke-width="1"/><line x1="-900" y1="334" x2="2100" y2="334" stroke="#f4f1ec" stroke-opacity="0.110" stroke-width="1"/><line x1="-900" y1="348" x2="2100" y2="348" stroke="#f4f1ec" stroke-opacity="0.110" stroke-width="1"/><line x1="-900" y1="362" x2="2100" y2="362" stroke="#f4f1ec" stroke-opacity="0.110" stroke-width="1"/><line x1="-900" y1="376" x2="2100" y2="376" stroke="#f4f1ec" stroke-opacity="0.110" stroke-width="1"/><line x1="-900" y1="390" x2="2100" y2="390" stroke="#f4f1ec" stroke-opacity="0.110" stroke-width="1"/><line x1="-900" y1="404" x2="2100" y2="404" stroke="#f4f1ec" stroke-opacity="0.110" stroke-width="1"/><line x1="-900" y1="418" x2="2100" y2="418" stroke="#f4f1ec" stroke-opacity="0.110" stroke-width="1"/><line x1="-900" y1="432" x2="2100" y2="432" stroke="#f4f1ec" stroke-opacity="0.110" stroke-width="1"/><line x1="-900" y1="446" x2="2100" y2="446" stroke="#f4f1ec" stroke-opacity="0.110" stroke-width="1"/><line x1="-900" y1="460" x2="2100" y2="460" stroke="#f4f1ec" stroke-opacity="0.110" stroke-width="1"/><line x1="-900" y1="474" x2="2100" y2="474" stroke="#f4f1ec" stroke-opacity="0.110" stroke-width="1"/><line x1="-900" y1="488" x2="2100" y2="488" stroke="#f4f1ec" stroke-opacity="0.110" stroke-width="1"/><line x1="-900" y1="502" x2="2100" y2="502" stroke="#f4f1ec" stroke-opacity="0.110" stroke-width="1"/><line x1="-900" y1="516" x2="2100" y2="516" stroke="#f4f1ec" stroke-opacity="0.110" stroke-width="1"/><line x1="-900" y1="530" x2="2100" y2="530" stroke="#f4f1ec" stroke-opacity="0.110" stroke-width="1"/><line x1="-900" y1="544" x2="2100" y2="544" stroke="#f4f1ec" stroke-opacity="0.110" stroke-width="1"/><line x1="-900" y1="558" x2="2100" y2="558" stroke="#f4f1ec" stroke-opacity="0.110" stroke-width="1"/><line x1="-900" y1="572" x2="2100" y2="572" stroke="#f4f1ec" stroke-opacity="0.110" stroke-width="1"/><line x1="-900" y1="586" x2="2100" y2="586" stroke="#f4f1ec" stroke-opacity="0.110" stroke-width="1"/><line x1="-900" y1="600" x2="2100" y2="600" stroke="#f4f1ec" stroke-opacity="0.110" stroke-width="1"/><line x1="-900" y1="614" x2="2100" y2="614" stroke="#f4f1ec" stroke-opacity="0.110" stroke-width="1"/><line x1="-900" y1="628" x2="2100" y2="628" stroke="#f4f1ec" stroke-opacity="0.110" stroke-width="1"/><line x1="-900" y1="642" x2="2100" y2="642" stroke="#f4f1ec" stroke-opacity="0.110" stroke-width="1"/><line x1="-900" y1="656" x2="2100" y2="656" stroke="#f4f1ec" stroke-opacity="0.110" stroke-width="1"/><line x1="-900" y1="670" x2="2100" y2="670" stroke="#f4f1ec" stroke-opacity="0.110" stroke-width="1"/><line x1="-900" y1="684" x2="2100" y2="684" stroke="#f4f1ec" stroke-opacity="0.110" stroke-width="1"/><line x1="-900" y1="698" x2="2100" y2="698" stroke="#f4f1ec" stroke-opacity="0.110" stroke-width="1"/><line x1="-900" y1="712" x2="2100" y2="712" stroke="#f4f1ec" stroke-opacity="0.110" stroke-width="1"/><line x1="-900" y1="726" x2="2100" y2="726" stroke="#f4f1ec" stroke-opacity="0.110" stroke-width="1"/><line x1="-900" y1="740" x2="2100" y2="740" stroke="#f4f1ec" stroke-opacity="0.110" stroke-width="1"/><line x1="-900" y1="754" x2="2100" y2="754" stroke="#f4f1ec" stroke-opacity="0.110" stroke-width="1"/><line x1="-900" y1="768" x2="2100" y2="768" stroke="#f4f1ec" stroke-opacity="0.110" stroke-width="1"/><line x1="-900" y1="782" x2="2100" y2="782" stroke="#f4f1ec" stroke-opacity="0.110" stroke-width="1"/><line x1="-900" y1="796" x2="2100" y2="796" stroke="#f4f1ec" stroke-opacity="0.110" stroke-width="1"/><line x1="-900" y1="810" x2="2100" y2="810" stroke="#f4f1ec" stroke-opacity="0.110" stroke-width="1"/><line x1="-900" y1="824" x2="2100" y2="824" stroke="#f4f1ec" stroke-opacity="0.110" stroke-width="1"/><line x1="-900" y1="838" x2="2100" y2="838" stroke="#f4f1ec" stroke-opacity="0.110" stroke-width="1"/><line x1="-900" y1="852" x2="2100" y2="852" stroke="#f4f1ec" stroke-opacity="0.110" stroke-width="1"/><line x1="-900" y1="866" x2="2100" y2="866" stroke="#f4f1ec" stroke-opacity="0.110" stroke-width="1"/><line x1="-900" y1="880" x2="2100" y2="880" stroke="#f4f1ec" stroke-opacity="0.110" stroke-width="1"/><line x1="-900" y1="894" x2="2100" y2="894" stroke="#f4f1ec" stroke-opacity="0.110" stroke-width="1"/><line x1="-900" y1="908" x2="2100" y2="908" stroke="#f4f1ec" stroke-opacity="0.110" stroke-width="1"/><line x1="-900" y1="922" x2="2100" y2="922" stroke="#f4f1ec" stroke-opacity="0.110" stroke-width="1"/><line x1="-900" y1="936" x2="2100" y2="936" stroke="#f4f1ec" stroke-opacity="0.110" stroke-width="1"/><line x1="-900" y1="950" x2="2100" y2="950" stroke="#f4f1ec" stroke-opacity="0.110" stroke-width="1"/><line x1="-900" y1="964" x2="2100" y2="964" stroke="#f4f1ec" stroke-opacity="0.110" stroke-width="1"/><line x1="-900" y1="978" x2="2100" y2="978" stroke="#f4f1ec" stroke-opacity="0.110" stroke-width="1"/><line x1="-900" y1="992" x2="2100" y2="992" stroke="#f4f1ec" stroke-opacity="0.110" stroke-width="1"/><line x1="-900" y1="1006" x2="2100" y2="1006" stroke="#f4f1ec" stroke-opacity="0.110" stroke-width="1"/><line x1="-900" y1="1020" x2="2100" y2="1020" stroke="#f4f1ec" stroke-opacity="0.110" stroke-width="1"/><line x1="-900" y1="1034" x2="2100" y2="1034" stroke="#f4f1ec" stroke-opacity="0.110" stroke-width="1"/><line x1="-900" y1="1048" x2="2100" y2="1048" stroke="#f4f1ec" stroke-opacity="0.110" stroke-width="1"/><line x1="-900" y1="1062" x2="2100" y2="1062" stroke="#f4f1ec" stroke-opacity="0.110" stroke-width="1"/><line x1="-900" y1="1076" x2="2100" y2="1076" stroke="#f4f1ec" stroke-opacity="0.110" stroke-width="1"/><line x1="-900" y1="1090" x2="2100" y2="1090" stroke="#f4f1ec" stroke-opacity="0.110" stroke-width="1"/><line x1="-900" y1="1104" x2="2100" y2="1104" stroke="#f4f1ec" stroke-opacity="0.110" stroke-width="1"/><line x1="-900" y1="1118" x2="2100" y2="1118" stroke="#f4f1ec" stroke-opacity="0.110" stroke-width="1"/><line x1="-900" y1="1132" x2="2100" y2="1132" stroke="#f4f1ec" stroke-opacity="0.110" stroke-width="1"/><line x1="-900" y1="1146" x2="2100" y2="1146" stroke="#f4f1ec" stroke-opacity="0.110" stroke-width="1"/><line x1="-900" y1="1160" x2="2100" y2="1160" stroke="#f4f1ec" stroke-opacity="0.110" stroke-width="1"/><line x1="-900" y1="1174" x2="2100" y2="1174" stroke="#f4f1ec" stroke-opacity="0.110" stroke-width="1"/><line x1="-900" y1="1188" x2="2100" y2="1188" stroke="#f4f1ec" stroke-opacity="0.110" stroke-width="1"/><line x1="-900" y1="1202" x2="2100" y2="1202" stroke="#f4f1ec" stroke-opacity="0.110" stroke-width="1"/><line x1="-900" y1="1216" x2="2100" y2="1216" stroke="#f4f1ec" stroke-opacity="0.110" stroke-width="1"/><line x1="-900" y1="1230" x2="2100" y2="1230" stroke="#f4f1ec" stroke-opacity="0.110" stroke-width="1"/><line x1="-900" y1="1244" x2="2100" y2="1244" stroke="#f4f1ec" stroke-opacity="0.110" stroke-width="1"/><line x1="-900" y1="1258" x2="2100" y2="1258" stroke="#f4f1ec" stroke-opacity="0.110" stroke-width="1"/><line x1="-900" y1="1272" x2="2100" y2="1272" stroke="#f4f1ec" stroke-opacity="0.110" stroke-width="1"/><line x1="-900" y1="1286" x2="2100" y2="1286" stroke="#f4f1ec" stroke-opacity="0.110" stroke-width="1"/><line x1="-900" y1="1300" x2="2100" y2="1300" stroke="#f4f1ec" stroke-opacity="0.110" stroke-width="1"/><line x1="-900" y1="1314" x2="2100" y2="1314" stroke="#f4f1ec" stroke-opacity="0.110" stroke-width="1"/><line x1="-900" y1="1328" x2="2100" y2="1328" stroke="#f4f1ec" stroke-opacity="0.110" stroke-width="1"/><line x1="-900" y1="1342" x2="2100" y2="1342" stroke="#f4f1ec" stroke-opacity="0.110" stroke-width="1"/><line x1="-900" y1="1356" x2="2100" y2="1356" stroke="#f4f1ec" stroke-opacity="0.110" stroke-width="1"/><line x1="-900" y1="1370" x2="2100" y2="1370" stroke="#f4f1ec" stroke-opacity="0.110" stroke-width="1"/><line x1="-900" y1="1384" x2="2100" y2="1384" stroke="#f4f1ec" stroke-opacity="0.110" stroke-width="1"/><line x1="-900" y1="1398" x2="2100" y2="1398" stroke="#f4f1ec" stroke-opacity="0.110" stroke-width="1"/><line x1="-900" y1="1412" x2="2100" y2="1412" stroke="#f4f1ec" stroke-opacity="0.110" stroke-width="1"/><line x1="-900" y1="1426" x2="2100" y2="1426" stroke="#f4f1ec" stroke-opacity="0.110" stroke-width="1"/><line x1="-900" y1="1440" x2="2100" y2="1440" stroke="#f4f1ec" stroke-opacity="0.110" stroke-width="1"/><line x1="-900" y1="1454" x2="2100" y2="1454" stroke="#f4f1ec" stroke-opacity="0.110" stroke-width="1"/><line x1="-900" y1="1468" x2="2100" y2="1468" stroke="#f4f1ec" stroke-opacity="0.110" stroke-width="1"/><line x1="-900" y1="1482" x2="2100" y2="1482" stroke="#f4f1ec" stroke-opacity="0.110" stroke-width="1"/><line x1="-900" y1="1496" x2="2100" y2="1496" stroke="#f4f1ec" stroke-opacity="0.110" stroke-width="1"/><line x1="-900" y1="1510" x2="2100" y2="1510" stroke="#f4f1ec" stroke-opacity="0.110" stroke-width="1"/><line x1="-900" y1="1524" x2="2100" y2="1524" stroke="#f4f1ec" stroke-opacity="0.110" stroke-width="1"/><line x1="-900" y1="1538" x2="2100" y2="1538" stroke="#f4f1ec" stroke-opacity="0.110" stroke-width="1"/><line x1="-900" y1="1552" x2="2100" y2="1552" stroke="#f4f1ec" stroke-opacity="0.110" stroke-width="1"/><line x1="-900" y1="1566" x2="2100" y2="1566" stroke="#f4f1ec" stroke-opacity="0.110" stroke-width="1"/><line x1="-900" y1="1580" x2="2100" y2="1580" stroke="#f4f1ec" stroke-opacity="0.110" stroke-width="1"/><line x1="-900" y1="1594" x2="2100" y2="1594" stroke="#f4f1ec" stroke-opacity="0.110" stroke-width="1"/></g>
    <path d="M725.5 -700.0 L746.1 -680.0 L748.7 -660.0 L735.1 -640.0 L711.2 -620.0 L684.7 -600.0 L663.5 -580.0 L652.9 -560.0 L654.3 -540.0 L664.6 -520.0 L677.4 -500.0 L685.0 -480.0 L680.8 -460.0 L661.4 -440.0 L627.9 -420.0 L585.2 -400.0 L540.8 -380.0 L502.8 -360.0 L477.5 -340.0 L468.2 -320.0 L474.7 -300.0 L494.1 -280.0 L522.0 -260.0 L554.3 -240.0 L588.1 -220.0 L621.9 -200.0 L655.7 -180.0 L689.3 -160.0 L721.5 -140.0 L749.6 -120.0 L769.7 -100.0 L777.4 -80.0 L769.7 -60.0 L746.4 -40.0 L710.3 -20.0 L667.6 0.0 L626.0 20.0 L593.1 40.0 L573.7 60.0 L569.1 80.0 L576.0 100.0 L587.9 120.0 L597.3 140.0 L597.8 160.0 L586.1 180.0 L563.6 200.0 L535.6 220.0 L510.0 240.0 L494.9 260.0 L496.1 280.0 L515.9 300.0 L551.9 320.0 L598.6 340.0 L648.3 360.0 L693.8 380.0 L729.8 400.0 L753.7 420.0 L765.8 440.0 L768.0 460.0 L762.5 480.0 L750.7 500.0 L733.0 520.0 L708.6 540.0 L677.0 560.0 L638.9 580.0 L597.0 600.0 L556.1 620.0 L522.1 640.0 L500.7 660.0 L495.1 680.0 L505.5 700.0 L527.9 720.0 L555.9 740.0 L581.8 760.0 L599.1 780.0 L604.7 800.0 L599.6 820.0 L588.8 840.0 L579.7 860.0 L579.7 880.0 L593.8 900.0 L623.0 920.0 L663.9 940.0 L709.2 960.0 L750.2 980.0 L778.7 1000.0 L789.3 1020.0 L780.7 1040.0 L755.3 1060.0 L718.6 1080.0 L676.6 1100.0 L635.0 1120.0 L597.3 1140.0 L565.0 1160.0 L537.9 1180.0 L515.5 1200.0 L497.8 1220.0 L486.4 1240.0 L483.5 1260.0 L491.7 1280.0 L512.2 1300.0 L543.9 1320.0 L582.9 1340.0 L623.2 1360.0 L658.0 1380.0 L681.5 1400.0 L691.2 1420.0 L688.2 1440.0 L677.1 1460.0 L665.0 1480.0 L658.8 1500.0 L-900 1700 L-900 -900 Z" fill="#14171d"/>
    <path d="M689.4 -700.0 L709.0 -680.0 L711.5 -660.0 L698.6 -640.0 L675.7 -620.0 L650.4 -600.0 L630.1 -580.0 L620.0 -560.0 L621.4 -540.0 L631.2 -520.0 L643.4 -500.0 L650.6 -480.0 L646.6 -460.0 L628.2 -440.0 L596.2 -420.0 L555.4 -400.0 L513.0 -380.0 L476.7 -360.0 L452.5 -340.0 L443.6 -320.0 L449.8 -300.0 L468.4 -280.0 L495.0 -260.0 L525.9 -240.0 L558.1 -220.0 L590.4 -200.0 L622.7 -180.0 L654.8 -160.0 L685.5 -140.0 L712.4 -120.0 L731.5 -100.0 L738.9 -80.0 L731.6 -60.0 L709.3 -40.0 L674.8 -20.0 L634.0 0.0 L594.3 20.0 L562.9 40.0 L544.4 60.0 L540.0 80.0 L546.5 100.0 L558.0 120.0 L567.0 140.0 L567.4 160.0 L556.2 180.0 L534.8 200.0 L508.0 220.0 L483.6 240.0 L469.1 260.0 L470.3 280.0 L489.2 300.0 L523.6 320.0 L568.1 340.0 L615.6 360.0 L659.1 380.0 L693.4 400.0 L716.3 420.0 L727.9 440.0 L729.9 460.0 L724.6 480.0 L713.4 500.0 L696.5 520.0 L673.2 540.0 L643.0 560.0 L606.6 580.0 L566.6 600.0 L527.6 620.0 L495.1 640.0 L474.7 660.0 L469.4 680.0 L479.2 700.0 L500.7 720.0 L527.4 740.0 L552.1 760.0 L568.6 780.0 L574.0 800.0 L569.1 820.0 L558.8 840.0 L550.1 860.0 L550.1 880.0 L563.6 900.0 L591.5 920.0 L630.5 940.0 L673.8 960.0 L712.9 980.0 L740.1 1000.0 L750.3 1020.0 L742.0 1040.0 L717.8 1060.0 L682.7 1080.0 L642.7 1100.0 L602.9 1120.0 L567.0 1140.0 L536.1 1160.0 L510.2 1180.0 L488.8 1200.0 L471.9 1220.0 L461.0 1240.0 L458.2 1260.0 L466.1 1280.0 L485.6 1300.0 L515.9 1320.0 L553.2 1340.0 L591.7 1360.0 L624.8 1380.0 L647.4 1400.0 L656.6 1420.0 L653.7 1440.0 L643.2 1460.0 L631.6 1480.0 L625.7 1500.0" fill="none" stroke="#f4f1ec" stroke-opacity="0.283" stroke-width="1.63"/><path d="M653.2 -700.0 L672.0 -680.0 L674.3 -660.0 L662.0 -640.0 L640.2 -620.0 L616.1 -600.0 L596.8 -580.0 L587.2 -560.0 L588.4 -540.0 L597.8 -520.0 L609.4 -500.0 L616.3 -480.0 L612.5 -460.0 L594.9 -440.0 L564.4 -420.0 L525.5 -400.0 L485.2 -380.0 L450.5 -360.0 L427.5 -340.0 L419.0 -320.0 L425.0 -300.0 L442.6 -280.0 L468.0 -260.0 L497.4 -240.0 L528.1 -220.0 L559.0 -200.0 L589.7 -180.0 L620.3 -160.0 L649.6 -140.0 L675.1 -120.0 L693.4 -100.0 L700.4 -80.0 L693.5 -60.0 L672.2 -40.0 L639.4 -20.0 L600.5 0.0 L562.7 20.0 L532.7 40.0 L515.1 60.0 L510.9 80.0 L517.1 100.0 L528.0 120.0 L536.6 140.0 L537.0 160.0 L526.4 180.0 L505.9 200.0 L480.4 220.0 L457.1 240.0 L443.4 260.0 L444.5 280.0 L462.5 300.0 L495.3 320.0 L537.7 340.0 L582.9 360.0 L624.3 380.0 L657.1 400.0 L678.9 420.0 L689.9 440.0 L691.9 460.0 L686.8 480.0 L676.1 500.0 L660.0 520.0 L637.8 540.0 L609.1 560.0 L574.4 580.0 L536.3 600.0 L499.0 620.0 L468.1 640.0 L448.6 660.0 L443.6 680.0 L453.0 700.0 L473.4 720.0 L498.9 740.0 L522.4 760.0 L538.2 780.0 L543.3 800.0 L538.7 820.0 L528.8 840.0 L520.5 860.0 L520.5 880.0 L533.3 900.0 L560.0 920.0 L597.2 940.0 L638.4 960.0 L675.7 980.0 L701.6 1000.0 L711.2 1020.0 L703.4 1040.0 L680.3 1060.0 L646.9 1080.0 L608.7 1100.0 L570.9 1120.0 L536.6 1140.0 L507.2 1160.0 L482.5 1180.0 L462.1 1200.0 L446.0 1220.0 L435.6 1240.0 L433.0 1260.0 L440.4 1280.0 L459.1 1300.0 L487.9 1320.0 L523.4 1340.0 L560.1 1360.0 L591.7 1380.0 L613.2 1400.0 L622.0 1420.0 L619.2 1440.0 L609.2 1460.0 L598.2 1480.0 L592.5 1500.0" fill="none" stroke="#f4f1ec" stroke-opacity="0.266" stroke-width="1.56"/><path d="M617.1 -700.0 L634.9 -680.0 L637.1 -660.0 L625.4 -640.0 L604.7 -620.0 L581.8 -600.0 L563.4 -580.0 L554.3 -560.0 L555.5 -540.0 L564.4 -520.0 L575.4 -500.0 L582.0 -480.0 L578.4 -460.0 L561.6 -440.0 L532.7 -420.0 L495.7 -400.0 L457.3 -380.0 L424.4 -360.0 L402.5 -340.0 L394.5 -320.0 L400.1 -300.0 L416.9 -280.0 L441.1 -260.0 L469.0 -240.0 L498.2 -220.0 L527.5 -200.0 L556.7 -180.0 L585.7 -160.0 L613.6 -140.0 L637.9 -120.0 L655.3 -100.0 L661.9 -80.0 L655.3 -60.0 L635.1 -40.0 L603.9 -20.0 L566.9 0.0 L531.0 20.0 L502.5 40.0 L485.8 60.0 L481.8 80.0 L487.7 100.0 L498.0 120.0 L506.2 140.0 L506.6 160.0 L496.5 180.0 L477.0 200.0 L452.8 220.0 L430.7 240.0 L417.6 260.0 L418.7 280.0 L435.7 300.0 L466.9 320.0 L507.3 340.0 L550.3 360.0 L589.6 380.0 L620.7 400.0 L641.5 420.0 L651.9 440.0 L653.8 460.0 L649.0 480.0 L638.9 500.0 L623.5 520.0 L602.4 540.0 L575.1 560.0 L542.1 580.0 L505.9 600.0 L470.5 620.0 L441.1 640.0 L422.6 660.0 L417.8 680.0 L426.7 700.0 L446.2 720.0 L470.4 740.0 L492.7 760.0 L507.7 780.0 L512.6 800.0 L508.2 820.0 L498.8 840.0 L491.0 860.0 L490.9 880.0 L503.1 900.0 L528.4 920.0 L563.8 940.0 L603.0 960.0 L638.4 980.0 L663.0 1000.0 L672.2 1020.0 L664.8 1040.0 L642.9 1060.0 L611.1 1080.0 L574.8 1100.0 L538.8 1120.0 L506.2 1140.0 L478.2 1160.0 L454.8 1180.0 L435.4 1200.0 L420.1 1220.0 L410.2 1240.0 L407.7 1260.0 L414.8 1280.0 L432.5 1300.0 L460.0 1320.0 L493.7 1340.0 L528.6 1360.0 L558.6 1380.0 L579.0 1400.0 L587.4 1420.0 L584.8 1440.0 L575.2 1460.0 L564.7 1480.0 L559.4 1500.0" fill="none" stroke="#f4f1ec" stroke-opacity="0.249" stroke-width="1.49"/><path d="M580.9 -700.0 L597.8 -680.0 L599.9 -660.0 L588.8 -640.0 L569.2 -620.0 L547.5 -600.0 L530.1 -580.0 L521.4 -560.0 L522.5 -540.0 L531.0 -520.0 L541.5 -500.0 L547.7 -480.0 L544.2 -460.0 L528.4 -440.0 L500.9 -420.0 L465.9 -400.0 L429.5 -380.0 L398.3 -360.0 L377.5 -340.0 L369.9 -320.0 L375.3 -300.0 L391.2 -280.0 L414.1 -260.0 L440.5 -240.0 L468.2 -220.0 L496.0 -200.0 L523.7 -180.0 L551.2 -160.0 L577.6 -140.0 L600.7 -120.0 L617.1 -100.0 L623.5 -80.0 L617.2 -60.0 L598.0 -40.0 L568.4 -20.0 L533.4 0.0 L499.3 20.0 L472.3 40.0 L456.5 60.0 L452.6 80.0 L458.3 100.0 L468.1 120.0 L475.8 140.0 L476.2 160.0 L466.6 180.0 L448.2 200.0 L425.2 220.0 L404.2 240.0 L391.8 260.0 L392.8 280.0 L409.0 300.0 L438.6 320.0 L476.8 340.0 L517.6 360.0 L554.9 380.0 L584.4 400.0 L604.0 420.0 L614.0 440.0 L615.8 460.0 L611.2 480.0 L601.6 500.0 L587.0 520.0 L567.0 540.0 L541.1 560.0 L509.9 580.0 L475.5 600.0 L442.0 620.0 L414.1 640.0 L396.6 660.0 L392.0 680.0 L400.5 700.0 L418.9 720.0 L441.9 740.0 L463.1 760.0 L477.3 780.0 L481.9 800.0 L477.7 820.0 L468.8 840.0 L461.4 860.0 L461.3 880.0 L472.9 900.0 L496.9 920.0 L530.4 940.0 L567.6 960.0 L601.2 980.0 L624.5 1000.0 L633.2 1020.0 L626.1 1040.0 L605.4 1060.0 L575.2 1080.0 L540.8 1100.0 L506.7 1120.0 L475.8 1140.0 L449.3 1160.0 L427.1 1180.0 L408.7 1200.0 L394.2 1220.0 L384.8 1240.0 L382.5 1260.0 L389.2 1280.0 L406.0 1300.0 L432.0 1320.0 L464.0 1340.0 L497.0 1360.0 L525.5 1380.0 L544.9 1400.0 L552.8 1420.0 L550.3 1440.0 L541.2 1460.0 L531.3 1480.0 L526.2 1500.0" fill="none" stroke="#f4f1ec" stroke-opacity="0.232" stroke-width="1.42"/><path d="M544.8 -700.0 L560.7 -680.0 L562.7 -660.0 L552.2 -640.0 L533.7 -620.0 L513.1 -600.0 L496.7 -580.0 L488.5 -560.0 L489.6 -540.0 L497.6 -520.0 L507.5 -500.0 L513.3 -480.0 L510.1 -460.0 L495.1 -440.0 L469.1 -420.0 L436.0 -400.0 L401.6 -380.0 L372.2 -360.0 L352.6 -340.0 L345.3 -320.0 L350.4 -300.0 L365.4 -280.0 L387.1 -260.0 L412.1 -240.0 L438.2 -220.0 L464.5 -200.0 L490.7 -180.0 L516.7 -160.0 L541.6 -140.0 L563.4 -120.0 L579.0 -100.0 L585.0 -80.0 L579.1 -60.0 L560.9 -40.0 L533.0 -20.0 L499.9 0.0 L467.6 20.0 L442.1 40.0 L427.1 60.0 L423.5 80.0 L428.9 100.0 L438.1 120.0 L445.4 140.0 L445.8 160.0 L436.7 180.0 L419.3 200.0 L397.6 220.0 L377.8 240.0 L366.0 260.0 L367.0 280.0 L382.3 300.0 L410.2 320.0 L446.4 340.0 L484.9 360.0 L520.2 380.0 L548.1 400.0 L566.6 420.0 L576.0 440.0 L577.7 460.0 L573.4 480.0 L564.3 500.0 L550.5 520.0 L531.6 540.0 L507.2 560.0 L477.6 580.0 L445.2 600.0 L413.5 620.0 L387.2 640.0 L370.5 660.0 L366.2 680.0 L374.2 700.0 L391.7 720.0 L413.3 740.0 L433.4 760.0 L446.8 780.0 L451.1 800.0 L447.2 820.0 L438.8 840.0 L431.8 860.0 L431.8 880.0 L442.7 900.0 L465.4 920.0 L497.0 940.0 L532.2 960.0 L563.9 980.0 L586.0 1000.0 L594.2 1020.0 L587.5 1040.0 L567.9 1060.0 L539.4 1080.0 L506.9 1100.0 L474.6 1120.0 L445.4 1140.0 L420.4 1160.0 L399.4 1180.0 L382.0 1200.0 L368.3 1220.0 L359.4 1240.0 L357.2 1260.0 L363.6 1280.0 L379.4 1300.0 L404.0 1320.0 L434.3 1340.0 L465.5 1360.0 L492.4 1380.0 L510.7 1400.0 L518.2 1420.0 L515.8 1440.0 L507.3 1460.0 L497.9 1480.0 L493.1 1500.0" fill="none" stroke="#f4f1ec" stroke-opacity="0.215" stroke-width="1.35"/><path d="M508.6 -700.0 L523.6 -680.0 L525.5 -660.0 L515.7 -640.0 L498.2 -620.0 L478.8 -600.0 L463.3 -580.0 L455.6 -560.0 L456.6 -540.0 L464.2 -520.0 L473.5 -500.0 L479.0 -480.0 L476.0 -460.0 L461.8 -440.0 L437.4 -420.0 L406.2 -400.0 L373.8 -380.0 L346.0 -360.0 L327.6 -340.0 L320.8 -320.0 L325.5 -300.0 L339.7 -280.0 L360.1 -260.0 L383.7 -240.0 L408.3 -220.0 L433.0 -200.0 L457.7 -180.0 L482.2 -160.0 L505.7 -140.0 L526.2 -120.0 L540.9 -100.0 L546.5 -80.0 L540.9 -60.0 L523.9 -40.0 L497.5 -20.0 L466.3 0.0 L436.0 20.0 L411.9 40.0 L397.8 60.0 L394.4 80.0 L399.4 100.0 L408.2 120.0 L415.0 140.0 L415.4 160.0 L406.9 180.0 L390.4 200.0 L370.0 220.0 L351.3 240.0 L340.3 260.0 L341.2 280.0 L355.6 300.0 L381.9 320.0 L416.0 340.0 L452.2 360.0 L485.5 380.0 L511.7 400.0 L529.2 420.0 L538.0 440.0 L539.6 460.0 L535.6 480.0 L527.0 500.0 L514.1 520.0 L496.3 540.0 L473.2 560.0 L445.4 580.0 L414.8 600.0 L384.9 620.0 L360.2 640.0 L344.5 660.0 L340.5 680.0 L348.0 700.0 L364.4 720.0 L384.8 740.0 L403.7 760.0 L416.3 780.0 L420.4 800.0 L416.7 820.0 L408.8 840.0 L402.2 860.0 L402.2 880.0 L412.5 900.0 L433.8 920.0 L463.7 940.0 L496.7 960.0 L526.6 980.0 L547.4 1000.0 L555.2 1020.0 L548.9 1040.0 L530.4 1060.0 L503.5 1080.0 L472.9 1100.0 L442.6 1120.0 L415.1 1140.0 L391.5 1160.0 L371.7 1180.0 L355.3 1200.0 L342.4 1220.0 L334.0 1240.0 L331.9 1260.0 L337.9 1280.0 L352.9 1300.0 L376.0 1320.0 L404.5 1340.0 L433.9 1360.0 L459.3 1380.0 L476.5 1400.0 L483.6 1420.0 L481.4 1440.0 L473.3 1460.0 L464.5 1480.0 L459.9 1500.0" fill="none" stroke="#f4f1ec" stroke-opacity="0.198" stroke-width="1.28"/><path d="M472.5 -700.0 L486.6 -680.0 L488.3 -660.0 L479.1 -640.0 L462.7 -620.0 L444.5 -600.0 L430.0 -580.0 L422.7 -560.0 L423.7 -540.0 L430.7 -520.0 L439.5 -500.0 L444.7 -480.0 L441.8 -460.0 L428.6 -440.0 L405.6 -420.0 L376.4 -400.0 L346.0 -380.0 L319.9 -360.0 L302.6 -340.0 L296.2 -320.0 L300.7 -300.0 L314.0 -280.0 L333.1 -260.0 L355.2 -240.0 L378.3 -220.0 L401.5 -200.0 L424.7 -180.0 L447.7 -160.0 L469.7 -140.0 L489.0 -120.0 L502.7 -100.0 L508.0 -80.0 L502.8 -60.0 L486.8 -40.0 L462.0 -20.0 L432.8 0.0 L404.3 20.0 L381.7 40.0 L368.5 60.0 L365.3 80.0 L370.0 100.0 L378.2 120.0 L384.7 140.0 L385.0 160.0 L377.0 180.0 L361.6 200.0 L342.4 220.0 L324.9 240.0 L314.5 260.0 L315.4 280.0 L328.9 300.0 L353.6 320.0 L385.5 340.0 L419.6 360.0 L450.7 380.0 L475.4 400.0 L491.8 420.0 L500.1 440.0 L501.6 460.0 L497.8 480.0 L489.7 500.0 L477.6 520.0 L460.9 540.0 L439.2 560.0 L413.1 580.0 L384.4 600.0 L356.4 620.0 L333.2 640.0 L318.5 660.0 L314.7 680.0 L321.7 700.0 L337.1 720.0 L356.3 740.0 L374.0 760.0 L385.9 780.0 L389.7 800.0 L386.2 820.0 L378.9 840.0 L372.6 860.0 L372.6 880.0 L382.2 900.0 L402.3 920.0 L430.3 940.0 L461.3 960.0 L489.4 980.0 L508.9 1000.0 L516.1 1020.0 L510.2 1040.0 L492.9 1060.0 L467.7 1080.0 L439.0 1100.0 L410.5 1120.0 L384.7 1140.0 L362.5 1160.0 L344.0 1180.0 L328.6 1200.0 L316.5 1220.0 L308.7 1240.0 L306.7 1260.0 L312.3 1280.0 L326.3 1300.0 L348.1 1320.0 L374.8 1340.0 L402.4 1360.0 L426.2 1380.0 L442.3 1400.0 L449.0 1420.0 L446.9 1440.0 L439.3 1460.0 L431.0 1480.0 L426.8 1500.0" fill="none" stroke="#f4f1ec" stroke-opacity="0.181" stroke-width="1.21"/><path d="M436.3 -700.0 L449.5 -680.0 L451.2 -660.0 L442.5 -640.0 L427.2 -620.0 L410.2 -600.0 L396.6 -580.0 L389.9 -560.0 L390.7 -540.0 L397.3 -520.0 L405.5 -500.0 L410.4 -480.0 L407.7 -460.0 L395.3 -440.0 L373.9 -420.0 L346.5 -400.0 L318.1 -380.0 L293.8 -360.0 L277.6 -340.0 L271.6 -320.0 L275.8 -300.0 L288.2 -280.0 L306.1 -260.0 L326.8 -240.0 L348.4 -220.0 L370.0 -200.0 L391.7 -180.0 L413.1 -160.0 L433.7 -140.0 L451.7 -120.0 L464.6 -100.0 L469.5 -80.0 L464.6 -60.0 L449.7 -40.0 L426.6 -20.0 L399.2 0.0 L372.6 20.0 L351.6 40.0 L339.2 60.0 L336.2 80.0 L340.6 100.0 L348.3 120.0 L354.3 140.0 L354.6 160.0 L347.1 180.0 L332.7 200.0 L314.8 220.0 L298.4 240.0 L288.7 260.0 L289.5 280.0 L302.2 300.0 L325.2 320.0 L355.1 340.0 L386.9 360.0 L416.0 380.0 L439.0 400.0 L454.4 420.0 L462.1 440.0 L463.5 460.0 L460.0 480.0 L452.4 500.0 L441.1 520.0 L425.5 540.0 L405.3 560.0 L380.9 580.0 L354.1 600.0 L327.9 620.0 L306.2 640.0 L292.4 660.0 L288.9 680.0 L295.5 700.0 L309.9 720.0 L327.8 740.0 L344.3 760.0 L355.4 780.0 L359.0 800.0 L355.8 820.0 L348.9 840.0 L343.0 860.0 L343.0 880.0 L352.0 900.0 L370.7 920.0 L396.9 940.0 L425.9 960.0 L452.1 980.0 L470.3 1000.0 L477.1 1020.0 L471.6 1040.0 L455.4 1060.0 L431.9 1080.0 L405.0 1100.0 L378.4 1120.0 L354.3 1140.0 L333.6 1160.0 L316.3 1180.0 L301.9 1200.0 L290.6 1220.0 L283.3 1240.0 L281.4 1260.0 L286.7 1280.0 L299.8 1300.0 L320.1 1320.0 L345.1 1340.0 L370.8 1360.0 L393.1 1380.0 L408.2 1400.0 L414.4 1420.0 L412.4 1440.0 L405.4 1460.0 L397.6 1480.0 L393.6 1500.0" fill="none" stroke="#f4f1ec" stroke-opacity="0.164" stroke-width="1.14"/><path d="M400.2 -700.0 L412.4 -680.0 L414.0 -660.0 L405.9 -640.0 L391.6 -620.0 L375.9 -600.0 L363.3 -580.0 L357.0 -560.0 L357.8 -540.0 L363.9 -520.0 L371.5 -500.0 L376.1 -480.0 L373.5 -460.0 L362.0 -440.0 L342.1 -420.0 L316.7 -400.0 L290.3 -380.0 L267.7 -360.0 L252.6 -340.0 L247.1 -320.0 L250.9 -300.0 L262.5 -280.0 L279.1 -260.0 L298.3 -240.0 L318.4 -220.0 L338.5 -200.0 L358.7 -180.0 L378.6 -160.0 L397.8 -140.0 L414.5 -120.0 L426.4 -100.0 L431.0 -80.0 L426.5 -60.0 L412.6 -40.0 L391.1 -20.0 L365.7 0.0 L341.0 20.0 L321.4 40.0 L309.9 60.0 L307.1 80.0 L311.2 100.0 L318.3 120.0 L323.9 140.0 L324.2 160.0 L317.2 180.0 L303.8 200.0 L287.2 220.0 L272.0 240.0 L263.0 260.0 L263.7 280.0 L275.4 300.0 L296.9 320.0 L324.6 340.0 L354.2 360.0 L381.3 380.0 L402.7 400.0 L417.0 420.0 L424.2 440.0 L425.5 460.0 L422.2 480.0 L415.2 500.0 L404.6 520.0 L390.1 540.0 L371.3 560.0 L348.6 580.0 L323.7 600.0 L299.4 620.0 L279.2 640.0 L266.4 660.0 L263.1 680.0 L269.3 700.0 L282.6 720.0 L299.3 740.0 L314.7 760.0 L325.0 780.0 L328.3 800.0 L325.3 820.0 L318.9 840.0 L313.4 860.0 L313.4 880.0 L321.8 900.0 L339.2 920.0 L363.5 940.0 L390.5 960.0 L414.9 980.0 L431.8 1000.0 L438.1 1020.0 L433.0 1040.0 L417.9 1060.0 L396.0 1080.0 L371.1 1100.0 L346.3 1120.0 L323.9 1140.0 L304.7 1160.0 L288.5 1180.0 L275.2 1200.0 L264.7 1220.0 L257.9 1240.0 L256.2 1260.0 L261.0 1280.0 L273.2 1300.0 L292.1 1320.0 L315.3 1340.0 L339.3 1360.0 L360.0 1380.0 L374.0 1400.0 L379.8 1420.0 L378.0 1440.0 L371.4 1460.0 L364.2 1480.0 L360.5 1500.0" fill="none" stroke="#f4f1ec" stroke-opacity="0.147" stroke-width="1.07"/><path d="M364.0 -700.0 L375.3 -680.0 L376.8 -660.0 L369.3 -640.0 L356.1 -620.0 L341.6 -600.0 L329.9 -580.0 L324.1 -560.0 L324.9 -540.0 L330.5 -520.0 L337.6 -500.0 L341.7 -480.0 L339.4 -460.0 L328.8 -440.0 L310.4 -420.0 L286.9 -400.0 L262.5 -380.0 L241.5 -360.0 L227.6 -340.0 L222.5 -320.0 L226.1 -300.0 L236.7 -280.0 L252.1 -260.0 L269.9 -240.0 L288.4 -220.0 L307.1 -200.0 L325.6 -180.0 L344.1 -160.0 L361.8 -140.0 L377.3 -120.0 L388.3 -100.0 L392.6 -80.0 L388.4 -60.0 L375.5 -40.0 L355.7 -20.0 L332.2 0.0 L309.3 20.0 L291.2 40.0 L280.5 60.0 L278.0 80.0 L281.8 100.0 L288.3 120.0 L293.5 140.0 L293.8 160.0 L287.4 180.0 L275.0 200.0 L259.6 220.0 L245.5 240.0 L237.2 260.0 L237.9 280.0 L248.7 300.0 L268.6 320.0 L294.2 340.0 L321.6 360.0 L346.6 380.0 L366.4 400.0 L379.5 420.0 L386.2 440.0 L387.4 460.0 L384.3 480.0 L377.9 500.0 L368.1 520.0 L354.7 540.0 L337.3 560.0 L316.4 580.0 L293.3 600.0 L270.8 620.0 L252.2 640.0 L240.4 660.0 L237.3 680.0 L243.0 700.0 L255.4 720.0 L270.8 740.0 L285.0 760.0 L294.5 780.0 L297.6 800.0 L294.8 820.0 L288.9 840.0 L283.8 860.0 L283.8 880.0 L291.6 900.0 L307.7 920.0 L330.1 940.0 L355.1 960.0 L377.6 980.0 L393.3 1000.0 L399.1 1020.0 L394.4 1040.0 L380.4 1060.0 L360.2 1080.0 L337.1 1100.0 L314.3 1120.0 L293.5 1140.0 L275.8 1160.0 L260.8 1180.0 L248.5 1200.0 L238.8 1220.0 L232.5 1240.0 L230.9 1260.0 L235.4 1280.0 L246.7 1300.0 L264.1 1320.0 L285.6 1340.0 L307.8 1360.0 L326.9 1380.0 L339.8 1400.0 L345.2 1420.0 L343.5 1440.0 L337.4 1460.0 L330.8 1480.0 L327.3 1500.0" fill="none" stroke="#f4f1ec" stroke-opacity="0.130" stroke-width="1.00"/><path d="M327.9 -700.0 L338.3 -680.0 L339.6 -660.0 L332.7 -640.0 L320.6 -620.0 L307.3 -600.0 L296.6 -580.0 L291.2 -560.0 L291.9 -540.0 L297.1 -520.0 L303.6 -500.0 L307.4 -480.0 L305.3 -460.0 L295.5 -440.0 L278.6 -420.0 L257.0 -400.0 L234.6 -380.0 L215.4 -360.0 L202.6 -340.0 L197.9 -320.0 L201.2 -300.0 L211.0 -280.0 L225.1 -260.0 L241.4 -240.0 L258.5 -220.0 L275.6 -200.0 L292.6 -180.0 L309.6 -160.0 L325.8 -140.0 L340.0 -120.0 L350.2 -100.0 L354.1 -80.0 L350.2 -60.0 L338.4 -40.0 L320.2 -20.0 L298.6 0.0 L277.6 20.0 L261.0 40.0 L251.2 60.0 L248.9 80.0 L252.4 100.0 L258.4 120.0 L263.1 140.0 L263.4 160.0 L257.5 180.0 L246.1 200.0 L232.0 220.0 L219.1 240.0 L211.4 260.0 L212.0 280.0 L222.0 300.0 L240.2 320.0 L263.8 340.0 L288.9 360.0 L311.9 380.0 L330.0 400.0 L342.1 420.0 L348.2 440.0 L349.3 460.0 L346.5 480.0 L340.6 500.0 L331.6 520.0 L319.3 540.0 L303.4 560.0 L284.1 580.0 L263.0 600.0 L242.3 620.0 L225.2 640.0 L214.3 660.0 L211.5 680.0 L216.8 700.0 L228.1 720.0 L242.2 740.0 L255.3 760.0 L264.0 780.0 L266.9 800.0 L264.3 820.0 L258.9 840.0 L254.3 860.0 L254.2 880.0 L261.4 900.0 L276.1 920.0 L296.8 940.0 L319.7 960.0 L340.3 980.0 L354.7 1000.0 L360.1 1020.0 L355.7 1040.0 L342.9 1060.0 L324.4 1080.0 L303.2 1100.0 L282.2 1120.0 L263.2 1140.0 L246.8 1160.0 L233.1 1180.0 L221.8 1200.0 L212.9 1220.0 L207.1 1240.0 L205.7 1260.0 L209.8 1280.0 L220.1 1300.0 L236.2 1320.0 L255.9 1340.0 L276.2 1360.0 L293.8 1380.0 L305.7 1400.0 L310.6 1420.0 L309.0 1440.0 L303.4 1460.0 L297.3 1480.0 L294.2 1500.0" fill="none" stroke="#f4f1ec" stroke-opacity="0.113" stroke-width="0.93"/>
    <circle cx="459.5" cy="-293.0" r="0.88" fill="#f4f1ec" fill-opacity="0.16"/><circle cx="743.4" cy="1043.0" r="1.13" fill="#f4f1ec" fill-opacity="0.28"/><circle cx="740.0" cy="1055.3" r="1.06" fill="#f4f1ec" fill-opacity="0.24"/><circle cx="564.0" cy="782.8" r="1.92" fill="#f4f1ec" fill-opacity="0.19"/><circle cx="508.0" cy="72.7" r="2.08" fill="#f4f1ec" fill-opacity="0.12"/><circle cx="448.3" cy="-298.7" r="1.60" fill="#f4f1ec" fill-opacity="0.18"/><circle cx="458.4" cy="670.1" r="0.82" fill="#f4f1ec" fill-opacity="0.26"/><circle cx="507.3" cy="707.9" r="2.07" fill="#f4f1ec" fill-opacity="0.23"/><circle cx="557.4" cy="778.7" r="0.95" fill="#f4f1ec" fill-opacity="0.25"/><circle cx="700.9" cy="421.7" r="1.96" fill="#f4f1ec" fill-opacity="0.31"/><circle cx="566.7" cy="876.8" r="0.87" fill="#f4f1ec" fill-opacity="0.13"/><circle cx="606.7" cy="-437.5" r="2.33" fill="#f4f1ec" fill-opacity="0.23"/><circle cx="509.1" cy="619.1" r="1.83" fill="#f4f1ec" fill-opacity="0.26"/><circle cx="525.1" cy="1171.6" r="1.58" fill="#f4f1ec" fill-opacity="0.27"/><circle cx="746.0" cy="-118.0" r="1.91" fill="#f4f1ec" fill-opacity="0.11"/><circle cx="513.7" cy="1179.4" r="1.67" fill="#f4f1ec" fill-opacity="0.30"/><circle cx="591.2" cy="908.4" r="2.05" fill="#f4f1ec" fill-opacity="0.29"/><circle cx="481.6" cy="669.4" r="2.22" fill="#f4f1ec" fill-opacity="0.21"/><circle cx="583.1" cy="1122.3" r="2.03" fill="#f4f1ec" fill-opacity="0.22"/><circle cx="549.5" cy="198.8" r="1.79" fill="#f4f1ec" fill-opacity="0.22"/><circle cx="742.0" cy="-41.2" r="1.74" fill="#f4f1ec" fill-opacity="0.31"/><circle cx="615.5" cy="-168.6" r="2.14" fill="#f4f1ec" fill-opacity="0.14"/><circle cx="677.6" cy="-133.5" r="1.19" fill="#f4f1ec" fill-opacity="0.26"/><circle cx="457.1" cy="-266.1" r="1.07" fill="#f4f1ec" fill-opacity="0.11"/><circle cx="473.9" cy="1193.4" r="1.96" fill="#f4f1ec" fill-opacity="0.11"/><circle cx="714.6" cy="964.5" r="1.76" fill="#f4f1ec" fill-opacity="0.12"/><circle cx="682.4" cy="-150.3" r="2.13" fill="#f4f1ec" fill-opacity="0.29"/><circle cx="777.1" cy="1006.4" r="1.31" fill="#f4f1ec" fill-opacity="0.13"/><circle cx="478.8" cy="1226.7" r="0.95" fill="#f4f1ec" fill-opacity="0.19"/><circle cx="535.2" cy="338.1" r="1.23" fill="#f4f1ec" fill-opacity="0.32"/><circle cx="487.3" cy="1186.2" r="0.90" fill="#f4f1ec" fill-opacity="0.32"/><circle cx="624.6" cy="4.0" r="2.20" fill="#f4f1ec" fill-opacity="0.26"/><circle cx="592.8" cy="157.6" r="0.85" fill="#f4f1ec" fill-opacity="0.12"/><circle cx="489.7" cy="-277.8" r="1.64" fill="#f4f1ec" fill-opacity="0.30"/><circle cx="476.0" cy="1282.4" r="2.40" fill="#f4f1ec" fill-opacity="0.19"/><circle cx="554.5" cy="193.2" r="1.72" fill="#f4f1ec" fill-opacity="0.16"/><circle cx="464.4" cy="230.1" r="2.25" fill="#f4f1ec" fill-opacity="0.20"/><circle cx="502.9" cy="716.0" r="1.24" fill="#f4f1ec" fill-opacity="0.17"/><circle cx="669.9" cy="946.1" r="1.12" fill="#f4f1ec" fill-opacity="0.19"/><circle cx="529.7" cy="84.7" r="1.28" fill="#f4f1ec" fill-opacity="0.12"/><circle cx="690.6" cy="400.0" r="1.49" fill="#f4f1ec" fill-opacity="0.22"/><circle cx="460.8" cy="1274.8" r="1.17" fill="#f4f1ec" fill-opacity="0.15"/><circle cx="531.3" cy="755.3" r="1.37" fill="#f4f1ec" fill-opacity="0.31"/><circle cx="680.8" cy="-131.4" r="2.03" fill="#f4f1ec" fill-opacity="0.21"/><circle cx="686.1" cy="-18.3" r="2.36" fill="#f4f1ec" fill-opacity="0.25"/><circle cx="471.6" cy="1193.7" r="1.71" fill="#f4f1ec" fill-opacity="0.15"/><circle cx="642.8" cy="-483.8" r="2.22" fill="#f4f1ec" fill-opacity="0.25"/><circle cx="481.9" cy="270.8" r="1.19" fill="#f4f1ec" fill-opacity="0.24"/><circle cx="518.3" cy="636.4" r="1.91" fill="#f4f1ec" fill-opacity="0.14"/><circle cx="511.9" cy="85.1" r="1.24" fill="#f4f1ec" fill-opacity="0.23"/><circle cx="707.5" cy="527.8" r="1.81" fill="#f4f1ec" fill-opacity="0.31"/><circle cx="496.5" cy="1191.9" r="1.48" fill="#f4f1ec" fill-opacity="0.17"/><circle cx="758.0" cy="1014.5" r="2.22" fill="#f4f1ec" fill-opacity="0.25"/><circle cx="571.0" cy="98.8" r="2.35" fill="#f4f1ec" fill-opacity="0.24"/><circle cx="544.3" cy="1158.1" r="1.60" fill="#f4f1ec" fill-opacity="0.14"/><circle cx="538.0" cy="734.1" r="1.17" fill="#f4f1ec" fill-opacity="0.19"/><circle cx="676.4" cy="539.0" r="1.20" fill="#f4f1ec" fill-opacity="0.26"/><circle cx="543.8" cy="779.0" r="1.11" fill="#f4f1ec" fill-opacity="0.26"/><circle cx="443.3" cy="1213.9" r="1.72" fill="#f4f1ec" fill-opacity="0.17"/><circle cx="462.9" cy="275.0" r="1.01" fill="#f4f1ec" fill-opacity="0.19"/><circle cx="454.4" cy="1265.5" r="1.85" fill="#f4f1ec" fill-opacity="0.29"/><circle cx="591.2" cy="349.6" r="1.73" fill="#f4f1ec" fill-opacity="0.29"/><circle cx="526.1" cy="88.9" r="1.30" fill="#f4f1ec" fill-opacity="0.22"/><circle cx="437.7" cy="-279.6" r="2.04" fill="#f4f1ec" fill-opacity="0.21"/><circle cx="507.2" cy="715.7" r="1.10" fill="#f4f1ec" fill-opacity="0.28"/><circle cx="597.6" cy="592.7" r="1.55" fill="#f4f1ec" fill-opacity="0.23"/><circle cx="467.0" cy="685.7" r="2.22" fill="#f4f1ec" fill-opacity="0.17"/><circle cx="669.4" cy="950.0" r="0.95" fill="#f4f1ec" fill-opacity="0.10"/><circle cx="564.4" cy="755.0" r="0.92" fill="#f4f1ec" fill-opacity="0.20"/><circle cx="480.5" cy="1268.4" r="1.74" fill="#f4f1ec" fill-opacity="0.29"/><circle cx="522.1" cy="1156.4" r="1.69" fill="#f4f1ec" fill-opacity="0.13"/><circle cx="467.0" cy="-344.3" r="0.98" fill="#f4f1ec" fill-opacity="0.19"/><circle cx="548.6" cy="1164.6" r="2.23" fill="#f4f1ec" fill-opacity="0.24"/><circle cx="660.5" cy="369.2" r="1.53" fill="#f4f1ec" fill-opacity="0.11"/><circle cx="476.8" cy="253.4" r="1.31" fill="#f4f1ec" fill-opacity="0.14"/><circle cx="747.6" cy="-105.8" r="1.16" fill="#f4f1ec" fill-opacity="0.29"/><circle cx="702.0" cy="-29.9" r="1.93" fill="#f4f1ec" fill-opacity="0.24"/><circle cx="729.7" cy="477.0" r="2.36" fill="#f4f1ec" fill-opacity="0.14"/><circle cx="468.8" cy="684.7" r="1.85" fill="#f4f1ec" fill-opacity="0.30"/><circle cx="760.4" cy="1033.2" r="1.15" fill="#f4f1ec" fill-opacity="0.16"/><circle cx="515.2" cy="-242.0" r="2.32" fill="#f4f1ec" fill-opacity="0.19"/><circle cx="504.8" cy="1195.3" r="2.18" fill="#f4f1ec" fill-opacity="0.24"/><circle cx="631.8" cy="1111.5" r="2.25" fill="#f4f1ec" fill-opacity="0.14"/><circle cx="473.7" cy="719.2" r="0.88" fill="#f4f1ec" fill-opacity="0.32"/><circle cx="535.1" cy="167.2" r="1.63" fill="#f4f1ec" fill-opacity="0.21"/><circle cx="502.2" cy="719.3" r="1.27" fill="#f4f1ec" fill-opacity="0.25"/><circle cx="481.8" cy="636.1" r="2.38" fill="#f4f1ec" fill-opacity="0.20"/><circle cx="653.2" cy="-456.6" r="2.11" fill="#f4f1ec" fill-opacity="0.31"/><circle cx="596.5" cy="790.9" r="1.45" fill="#f4f1ec" fill-opacity="0.19"/><circle cx="695.3" cy="423.4" r="1.11" fill="#f4f1ec" fill-opacity="0.24"/><circle cx="569.3" cy="58.5" r="2.12" fill="#f4f1ec" fill-opacity="0.16"/><circle cx="537.6" cy="829.5" r="2.39" fill="#f4f1ec" fill-opacity="0.23"/><circle cx="631.8" cy="1104.9" r="2.33" fill="#f4f1ec" fill-opacity="0.28"/><circle cx="515.2" cy="1186.3" r="2.25" fill="#f4f1ec" fill-opacity="0.27"/><circle cx="715.8" cy="-78.8" r="1.30" fill="#f4f1ec" fill-opacity="0.15"/><circle cx="449.6" cy="-362.2" r="1.71" fill="#f4f1ec" fill-opacity="0.22"/><circle cx="524.8" cy="67.8" r="2.28" fill="#f4f1ec" fill-opacity="0.29"/><circle cx="557.4" cy="50.2" r="1.57" fill="#f4f1ec" fill-opacity="0.24"/><circle cx="596.6" cy="-202.1" r="1.97" fill="#f4f1ec" fill-opacity="0.19"/><circle cx="564.0" cy="107.5" r="1.58" fill="#f4f1ec" fill-opacity="0.23"/><circle cx="442.5" cy="-356.9" r="2.21" fill="#f4f1ec" fill-opacity="0.29"/><circle cx="527.0" cy="740.2" r="1.68" fill="#f4f1ec" fill-opacity="0.30"/><circle cx="529.0" cy="845.7" r="0.88" fill="#f4f1ec" fill-opacity="0.12"/><circle cx="575.4" cy="813.9" r="1.04" fill="#f4f1ec" fill-opacity="0.13"/><circle cx="564.8" cy="867.4" r="1.35" fill="#f4f1ec" fill-opacity="0.27"/><circle cx="475.1" cy="220.7" r="1.64" fill="#f4f1ec" fill-opacity="0.29"/><circle cx="712.9" cy="431.9" r="1.17" fill="#f4f1ec" fill-opacity="0.16"/><circle cx="503.0" cy="203.1" r="1.77" fill="#f4f1ec" fill-opacity="0.17"/><circle cx="551.3" cy="857.2" r="1.08" fill="#f4f1ec" fill-opacity="0.31"/><circle cx="526.8" cy="-381.8" r="2.20" fill="#f4f1ec" fill-opacity="0.21"/><circle cx="729.9" cy="-116.6" r="2.07" fill="#f4f1ec" fill-opacity="0.26"/><circle cx="580.0" cy="1134.0" r="2.23" fill="#f4f1ec" fill-opacity="0.25"/><circle cx="672.6" cy="-30.9" r="0.95" fill="#f4f1ec" fill-opacity="0.28"/><circle cx="753.3" cy="1024.1" r="0.89" fill="#f4f1ec" fill-opacity="0.22"/><circle cx="597.8" cy="-202.9" r="1.34" fill="#f4f1ec" fill-opacity="0.23"/><circle cx="444.5" cy="-328.4" r="1.14" fill="#f4f1ec" fill-opacity="0.29"/><circle cx="509.5" cy="-255.3" r="1.18" fill="#f4f1ec" fill-opacity="0.30"/><circle cx="581.3" cy="843.6" r="1.34" fill="#f4f1ec" fill-opacity="0.12"/><circle cx="532.3" cy="38.2" r="1.50" fill="#f4f1ec" fill-opacity="0.30"/><circle cx="540.5" cy="206.7" r="2.01" fill="#f4f1ec" fill-opacity="0.32"/><circle cx="589.0" cy="593.7" r="2.16" fill="#f4f1ec" fill-opacity="0.12"/><circle cx="476.0" cy="686.1" r="2.26" fill="#f4f1ec" fill-opacity="0.19"/><circle cx="540.3" cy="731.9" r="0.89" fill="#f4f1ec" fill-opacity="0.11"/><circle cx="584.4" cy="1126.0" r="1.67" fill="#f4f1ec" fill-opacity="0.12"/><circle cx="495.7" cy="212.4" r="1.18" fill="#f4f1ec" fill-opacity="0.28"/><circle cx="576.1" cy="843.1" r="1.12" fill="#f4f1ec" fill-opacity="0.26"/><circle cx="449.0" cy="706.2" r="1.89" fill="#f4f1ec" fill-opacity="0.20"/><circle cx="571.2" cy="174.9" r="1.36" fill="#f4f1ec" fill-opacity="0.17"/><circle cx="723.5" cy="440.3" r="1.29" fill="#f4f1ec" fill-opacity="0.11"/><circle cx="709.5" cy="1072.4" r="1.46" fill="#f4f1ec" fill-opacity="0.10"/><circle cx="721.0" cy="414.9" r="2.01" fill="#f4f1ec" fill-opacity="0.22"/><circle cx="728.6" cy="455.3" r="1.45" fill="#f4f1ec" fill-opacity="0.13"/><circle cx="459.6" cy="-333.4" r="1.93" fill="#f4f1ec" fill-opacity="0.28"/><circle cx="700.4" cy="975.4" r="2.20" fill="#f4f1ec" fill-opacity="0.26"/><circle cx="686.6" cy="510.5" r="1.78" fill="#f4f1ec" fill-opacity="0.19"/><circle cx="471.9" cy="648.4" r="2.05" fill="#f4f1ec" fill-opacity="0.31"/><circle cx="502.3" cy="300.6" r="2.09" fill="#f4f1ec" fill-opacity="0.28"/><circle cx="702.7" cy="973.8" r="1.49" fill="#f4f1ec" fill-opacity="0.27"/><circle cx="716.4" cy="444.5" r="0.97" fill="#f4f1ec" fill-opacity="0.20"/><circle cx="455.6" cy="708.3" r="1.95" fill="#f4f1ec" fill-opacity="0.27"/><circle cx="541.2" cy="1137.9" r="2.02" fill="#f4f1ec" fill-opacity="0.22"/><circle cx="710.3" cy="527.0" r="1.89" fill="#f4f1ec" fill-opacity="0.18"/><circle cx="706.4" cy="486.0" r="0.82" fill="#f4f1ec" fill-opacity="0.21"/><circle cx="561.1" cy="167.9" r="1.35" fill="#f4f1ec" fill-opacity="0.26"/><circle cx="729.7" cy="426.4" r="1.15" fill="#f4f1ec" fill-opacity="0.17"/><circle cx="548.5" cy="-214.4" r="1.88" fill="#f4f1ec" fill-opacity="0.28"/><circle cx="656.5" cy="1082.2" r="1.40" fill="#f4f1ec" fill-opacity="0.21"/><circle cx="554.6" cy="162.1" r="2.39" fill="#f4f1ec" fill-opacity="0.14"/><circle cx="719.6" cy="513.7" r="2.03" fill="#f4f1ec" fill-opacity="0.31"/><circle cx="472.3" cy="1222.2" r="1.28" fill="#f4f1ec" fill-opacity="0.19"/><circle cx="552.6" cy="108.2" r="1.01" fill="#f4f1ec" fill-opacity="0.16"/><circle cx="749.1" cy="1015.5" r="0.98" fill="#f4f1ec" fill-opacity="0.21"/><circle cx="450.2" cy="1272.1" r="2.25" fill="#f4f1ec" fill-opacity="0.11"/><circle cx="683.0" cy="514.0" r="1.29" fill="#f4f1ec" fill-opacity="0.25"/><circle cx="726.9" cy="-104.8" r="2.19" fill="#f4f1ec" fill-opacity="0.18"/><circle cx="443.2" cy="-322.8" r="2.36" fill="#f4f1ec" fill-opacity="0.28"/><circle cx="545.3" cy="205.5" r="1.70" fill="#f4f1ec" fill-opacity="0.30"/><circle cx="644.1" cy="361.6" r="1.31" fill="#f4f1ec" fill-opacity="0.19"/><circle cx="489.0" cy="716.4" r="2.12" fill="#f4f1ec" fill-opacity="0.18"/><circle cx="548.2" cy="755.1" r="1.68" fill="#f4f1ec" fill-opacity="0.11"/><circle cx="573.1" cy="186.9" r="1.04" fill="#f4f1ec" fill-opacity="0.31"/><circle cx="641.4" cy="-175.3" r="1.07" fill="#f4f1ec" fill-opacity="0.27"/><circle cx="557.1" cy="-225.9" r="1.74" fill="#f4f1ec" fill-opacity="0.27"/><circle cx="682.1" cy="383.7" r="2.17" fill="#f4f1ec" fill-opacity="0.15"/><circle cx="602.9" cy="923.5" r="2.06" fill="#f4f1ec" fill-opacity="0.30"/><circle cx="480.5" cy="290.3" r="1.74" fill="#f4f1ec" fill-opacity="0.29"/><circle cx="497.8" cy="-272.3" r="2.08" fill="#f4f1ec" fill-opacity="0.26"/><circle cx="734.5" cy="989.1" r="1.43" fill="#f4f1ec" fill-opacity="0.21"/><circle cx="463.3" cy="249.8" r="2.23" fill="#f4f1ec" fill-opacity="0.31"/><circle cx="479.3" cy="277.8" r="1.51" fill="#f4f1ec" fill-opacity="0.12"/><circle cx="496.0" cy="1177.8" r="1.56" fill="#f4f1ec" fill-opacity="0.31"/><circle cx="558.3" cy="865.9" r="0.91" fill="#f4f1ec" fill-opacity="0.18"/><circle cx="522.4" cy="1156.7" r="1.35" fill="#f4f1ec" fill-opacity="0.23"/><circle cx="549.7" cy="-391.8" r="0.98" fill="#f4f1ec" fill-opacity="0.11"/><circle cx="608.2" cy="-180.6" r="1.19" fill="#f4f1ec" fill-opacity="0.31"/><circle cx="603.2" cy="1132.8" r="1.36" fill="#f4f1ec" fill-opacity="0.21"/><circle cx="579.8" cy="788.4" r="2.35" fill="#f4f1ec" fill-opacity="0.12"/><circle cx="579.0" cy="906.3" r="0.84" fill="#f4f1ec" fill-opacity="0.24"/><circle cx="689.6" cy="512.3" r="2.07" fill="#f4f1ec" fill-opacity="0.12"/><circle cx="532.5" cy="624.0" r="1.81" fill="#f4f1ec" fill-opacity="0.11"/><circle cx="435.8" cy="1257.3" r="1.86" fill="#f4f1ec" fill-opacity="0.15"/><circle cx="726.6" cy="-57.3" r="1.69" fill="#f4f1ec" fill-opacity="0.27"/><circle cx="514.6" cy="-257.7" r="2.22" fill="#f4f1ec" fill-opacity="0.11"/><circle cx="696.4" cy="984.3" r="1.39" fill="#f4f1ec" fill-opacity="0.25"/><circle cx="675.5" cy="963.9" r="1.77" fill="#f4f1ec" fill-opacity="0.31"/><circle cx="550.5" cy="153.5" r="2.24" fill="#f4f1ec" fill-opacity="0.19"/><circle cx="679.4" cy="401.0" r="1.83" fill="#f4f1ec" fill-opacity="0.29"/><circle cx="543.0" cy="871.7" r="2.33" fill="#f4f1ec" fill-opacity="0.19"/><circle cx="532.1" cy="118.8" r="2.38" fill="#f4f1ec" fill-opacity="0.30"/><circle cx="501.1" cy="309.5" r="1.05" fill="#f4f1ec" fill-opacity="0.27"/><circle cx="587.5" cy="-188.6" r="1.74" fill="#f4f1ec" fill-opacity="0.11"/><circle cx="450.1" cy="-349.7" r="2.28" fill="#f4f1ec" fill-opacity="0.15"/><circle cx="482.3" cy="1278.1" r="1.08" fill="#f4f1ec" fill-opacity="0.24"/><circle cx="500.0" cy="305.8" r="2.12" fill="#f4f1ec" fill-opacity="0.29"/><circle cx="599.0" cy="586.2" r="0.89" fill="#f4f1ec" fill-opacity="0.26"/><circle cx="593.0" cy="-407.8" r="0.93" fill="#f4f1ec" fill-opacity="0.18"/><circle cx="526.5" cy="751.5" r="1.89" fill="#f4f1ec" fill-opacity="0.29"/><circle cx="579.4" cy="898.1" r="1.67" fill="#f4f1ec" fill-opacity="0.20"/><circle cx="448.4" cy="-363.5" r="0.94" fill="#f4f1ec" fill-opacity="0.17"/><circle cx="539.7" cy="879.9" r="2.24" fill="#f4f1ec" fill-opacity="0.12"/>
    <path d="M725.5 -700.0 L746.1 -680.0 L748.7 -660.0 L735.1 -640.0 L711.2 -620.0 L684.7 -600.0 L663.5 -580.0 L652.9 -560.0 L654.3 -540.0 L664.6 -520.0 L677.4 -500.0 L685.0 -480.0 L680.8 -460.0 L661.4 -440.0 L627.9 -420.0 L585.2 -400.0 L540.8 -380.0 L502.8 -360.0 L477.5 -340.0 L468.2 -320.0 L474.7 -300.0 L494.1 -280.0 L522.0 -260.0 L554.3 -240.0 L588.1 -220.0 L621.9 -200.0 L655.7 -180.0 L689.3 -160.0 L721.5 -140.0 L749.6 -120.0 L769.7 -100.0 L777.4 -80.0 L769.7 -60.0 L746.4 -40.0 L710.3 -20.0 L667.6 0.0 L626.0 20.0 L593.1 40.0 L573.7 60.0 L569.1 80.0 L576.0 100.0 L587.9 120.0 L597.3 140.0 L597.8 160.0 L586.1 180.0 L563.6 200.0 L535.6 220.0 L510.0 240.0 L494.9 260.0 L496.1 280.0 L515.9 300.0 L551.9 320.0 L598.6 340.0 L648.3 360.0 L693.8 380.0 L729.8 400.0 L753.7 420.0 L765.8 440.0 L768.0 460.0 L762.5 480.0 L750.7 500.0 L733.0 520.0 L708.6 540.0 L677.0 560.0 L638.9 580.0 L597.0 600.0 L556.1 620.0 L522.1 640.0 L500.7 660.0 L495.1 680.0 L505.5 700.0 L527.9 720.0 L555.9 740.0 L581.8 760.0 L599.1 780.0 L604.7 800.0 L599.6 820.0 L588.8 840.0 L579.7 860.0 L579.7 880.0 L593.8 900.0 L623.0 920.0 L663.9 940.0 L709.2 960.0 L750.2 980.0 L778.7 1000.0 L789.3 1020.0 L780.7 1040.0 L755.3 1060.0 L718.6 1080.0 L676.6 1100.0 L635.0 1120.0 L597.3 1140.0 L565.0 1160.0 L537.9 1180.0 L515.5 1200.0 L497.8 1220.0 L486.4 1240.0 L483.5 1260.0 L491.7 1280.0 L512.2 1300.0 L543.9 1320.0 L582.9 1340.0 L623.2 1360.0 L658.0 1380.0 L681.5 1400.0 L691.2 1420.0 L688.2 1440.0 L677.1 1460.0 L665.0 1480.0 L658.8 1500.0" fill="none" stroke="#f4f1ec" stroke-opacity="0.50" stroke-width="2.4"/>
    <path d="M764.3 -700.0 L784.1 -680.0 L786.6 -660.0 L773.6 -640.0 L750.6 -620.0 L725.2 -600.0 L704.8 -580.0 L694.6 -560.0 L696.0 -540.0 L705.9 -520.0 L718.1 -500.0 L725.4 -480.0 L721.4 -460.0 L702.8 -440.0 L670.6 -420.0 L629.6 -400.0 L587.0 -380.0 L550.5 -360.0 L526.2 -340.0 L517.3 -320.0 L523.6 -300.0 L542.2 -280.0 L569.0 -260.0 L600.0 -240.0 L632.4 -220.0 L664.9 -200.0 L697.3 -180.0 L729.6 -160.0 L760.5 -140.0 L787.5 -120.0 L806.7 -100.0 L814.1 -80.0 L806.8 -60.0 L784.4 -40.0 L749.7 -20.0 L708.7 0.0 L668.8 20.0 L637.2 40.0 L618.6 60.0 L614.2 80.0 L620.8 100.0 L632.2 120.0 L641.3 140.0 L641.7 160.0 L630.5 180.0 L608.9 200.0 L582.0 220.0 L557.5 240.0 L542.9 260.0 L544.1 280.0 L563.1 300.0 L597.7 320.0 L642.5 340.0 L690.2 360.0 L733.9 380.0 L768.4 400.0 L791.4 420.0 L803.0 440.0 L805.1 460.0 L799.8 480.0 L788.5 500.0 L771.5 520.0 L748.1 540.0 L717.7 560.0 L681.2 580.0 L640.9 600.0 L601.7 620.0 L569.1 640.0 L548.5 660.0 L543.2 680.0 L553.1 700.0 L574.7 720.0 L601.5 740.0 L626.3 760.0 L643.0 780.0 L648.3 800.0 L643.5 820.0 L633.1 840.0 L624.4 860.0 L624.3 880.0 L637.9 900.0 L666.0 920.0 L705.2 940.0 L748.7 960.0 L788.0 980.0 L815.4 1000.0 L825.5 1020.0 L817.3 1040.0 L793.0 1060.0 L757.7 1080.0 L717.4 1100.0 L677.5 1120.0 L641.3 1140.0 L610.3 1160.0 L584.2 1180.0 L562.7 1200.0 L545.7 1220.0 L534.7 1240.0 L532.0 1260.0 L539.9 1280.0 L559.5 1300.0 L590.0 1320.0 L627.4 1340.0 L666.1 1360.0 L699.5 1380.0 L722.1 1400.0 L731.4 1420.0 L728.5 1440.0 L717.9 1460.0 L706.2 1480.0 L700.3 1500.0" fill="none" stroke="#e64a33" stroke-opacity="0.95" stroke-width="3.2" stroke-dasharray="20 8" stroke-linecap="round"/>
    <circle cx="609" cy="606" r="7" fill="#e64a33"/>
    <circle cx="609" cy="606" r="16" fill="none" stroke="#e64a33" stroke-opacity="0.55" stroke-width="2"/>
  </g>
  <rect width="1200" height="800" fill="url(#vignette)"/>
</svg>
